<mxfile host="app.diagrams.net" modified="2023-06-26T17:10:55.698Z" agent="Mozilla/5.0 (Macintosh; Intel Mac OS X 10_15_7) AppleWebKit/537.36 (KHTML, like Gecko) Chrome/114.0.0.0 Safari/537.36" etag="MKg5RtJ2T197QWutK9ti" version="21.5.0" type="device">
  <diagram name="PÃ¡gina-1" id="w7mJVSVoSuAP8DbTiMWw">
    <mxGraphModel dx="1472" dy="755" grid="1" gridSize="10" guides="1" tooltips="1" connect="1" arrows="1" fold="1" page="1" pageScale="1" pageWidth="827" pageHeight="1169" math="0" shadow="0">
      <root>
        <mxCell id="0" />
        <mxCell id="1" parent="0" />
        <mxCell id="o0bQR4n_ZS62qE8FyJLB-1" value="Prepara Stage&lt;br&gt;initStage()" style="rounded=0;whiteSpace=wrap;html=1;" vertex="1" parent="1">
          <mxGeometry x="380" y="360" width="120" height="60" as="geometry" />
        </mxCell>
      </root>
    </mxGraphModel>
  </diagram>
</mxfile>
